<svg xmlns="http://www.w3.org/2000/svg" viewBox="0 0 237.88 51.55"><defs><style>.cls-1{fill:#ffffff;}</style></defs><g id="Warstwa_2" data-name="Warstwa 2"><g id="Warstwa_1-2" data-name="Warstwa 1"><path class="cls-1" d="M23.33,6.55H7.2a.26.26,0,0,0-.29.29V22.46a.25.25,0,0,0,.29.29h9.86a.64.64,0,0,1,.72.72V28a.64.64,0,0,1-.72.72H7.2a.25.25,0,0,0-.29.29V50.26a.64.64,0,0,1-.72.72H.72A.64.64,0,0,1,0,50.26V1.3A.64.64,0,0,1,.72.58H23.33a.64.64,0,0,1,.72.72V5.83A.64.64,0,0,1,23.33,6.55Z"/><path class="cls-1" d="M29.52,50.26V1.3a.64.64,0,0,1,.72-.72h5.47a.64.64,0,0,1,.72.72v49a.64.64,0,0,1-.72.72H30.24A.64.64,0,0,1,29.52,50.26Z"/><path class="cls-1" d="M45.36,50.26V1.3a.64.64,0,0,1,.72-.72h5.47a.64.64,0,0,1,.72.72V44.71a.26.26,0,0,0,.29.29H68.69a.64.64,0,0,1,.72.72v4.54a.64.64,0,0,1-.72.72H46.08A.64.64,0,0,1,45.36,50.26Z"/><path class="cls-1" d="M97.92.58h5.47a.64.64,0,0,1,.72.72v49a.64.64,0,0,1-.72.72H97.92a.64.64,0,0,1-.72-.72V14.54c0-.14,0-.21-.11-.21a.4.4,0,0,0-.25.14L89.93,27.36a.69.69,0,0,1-.65.5.69.69,0,0,1-.65-.5L81.79,14.54a.43.43,0,0,0-.25-.14c-.07,0-.11.07-.11.22V50.26a.64.64,0,0,1-.72.72H75.24a.64.64,0,0,1-.72-.72V1.3a.64.64,0,0,1,.72-.72h5.47a1,1,0,0,1,.86.5l7.56,13.54a.38.38,0,0,0,.44,0L97.05,1.08A.93.93,0,0,1,97.92.58Z"/><path class="cls-1" d="M133.85.58h5.4a.64.64,0,0,1,.72.72v49a.64.64,0,0,1-.72.72h-6.2a.81.81,0,0,1-.79-.58L120,17.5c0-.1-.12-.14-.21-.11a.17.17,0,0,0-.15.18l.07,32.69A.64.64,0,0,1,119,51h-5.47a.64.64,0,0,1-.72-.72V1.3a.64.64,0,0,1,.72-.72h6.12a.78.78,0,0,1,.79.57l12.32,32.91c0,.14.12.2.21.18s.15-.11.15-.26V1.3A.64.64,0,0,1,133.85.58Z"/><path class="cls-1" d="M151.49,48a12.9,12.9,0,0,1-3.6-9.57V13.25a13,13,0,0,1,3.6-9.61A12.73,12.73,0,0,1,161,0a13,13,0,0,1,9.61,3.64,13,13,0,0,1,3.64,9.61V38.38A12.88,12.88,0,0,1,170.6,48a13.06,13.06,0,0,1-9.61,3.6A12.82,12.82,0,0,1,151.49,48Zm14.11-4.28a7.18,7.18,0,0,0,1.73-5V12.89a7.2,7.2,0,0,0-1.73-5A5.92,5.92,0,0,0,161,6a5.72,5.72,0,0,0-4.5,1.9,7.27,7.27,0,0,0-1.69,5V38.66a7.25,7.25,0,0,0,1.69,5,5.73,5.73,0,0,0,4.5,1.91A5.92,5.92,0,0,0,165.6,43.67Z"/><path class="cls-1" d="M207.14,1.3V5.83a.64.64,0,0,1-.72.72H197a.26.26,0,0,0-.29.29V50.26A.64.64,0,0,1,196,51h-5.47a.64.64,0,0,1-.72-.72V6.84a.26.26,0,0,0-.29-.29h-8.93a.64.64,0,0,1-.72-.72V1.3a.64.64,0,0,1,.72-.72h25.85A.64.64,0,0,1,207.14,1.3Z"/><path class="cls-1" d="M237.17,6.55H221c-.19,0-.28.1-.28.29V22.46c0,.2.09.29.28.29h9.94a.64.64,0,0,1,.72.72V28a.64.64,0,0,1-.72.72H221c-.19,0-.28.09-.28.29V44.71c0,.19.09.29.28.29h16.21a.63.63,0,0,1,.71.72v4.54a.63.63,0,0,1-.71.72H214.48a.64.64,0,0,1-.72-.72V1.3a.64.64,0,0,1,.72-.72h22.69a.63.63,0,0,1,.71.72V5.83A.63.63,0,0,1,237.17,6.55Z"/></g></g></svg>